<?xml version="1.0"?>
<svg width="350" height="232" xmlns="http://www.w3.org/2000/svg" xmlns:svg="http://www.w3.org/2000/svg" preserveAspectRatio="xMidYMid meet" version="1.0">
 <g class="layer">
  <title>Layer 1</title>
  <g fill="#8c7360" id="svg_1" transform="matrix(0.1 0 0 -0.1 -4 295)">
   <path  d="m1013,1585c-17,-13 -16,-14 15,-15c33,0 43,13 18,23c-8,3 -22,-1 -33,-8z" id="svg_2"/>
   <path  fill="#10676b" d="m1755,1555c-38,-7 -97,-20 -130,-30c-33,-9 -74,-18 -92,-20c-49,-5 -197,-45 -208,-56c-7,-7 0,-8 20,-4c25,5 27,4 12,-5c-10,-7 -25,-9 -34,-6c-8,4 -21,2 -27,-3c-6,-5 -22,-11 -36,-15c-17,-5 -13,0 13,14c48,26 47,34 -3,26c-62,-10 -122,-37 -116,-52c3,-7 -3,-16 -13,-19c-10,-3 -22,-20 -27,-38c-9,-29 -16,-34 -89,-58c-44,-15 -124,-37 -178,-50c-85,-21 -97,-26 -95,-44c5,-33 70,-49 148,-36c204,34 456,47 491,26c8,-6 32,-28 52,-51l36,-40l-127,3c-264,7 -297,9 -310,17c-7,4 -19,3 -27,-4c-9,-7 -15,-8 -20,0c-9,14 -28,13 -19,-2c6,-10 4,-10 -7,0c-7,6 -29,12 -49,12c-95,1 -151,25 -380,165c-47,29 -105,60 -130,69c-25,10 -96,44 -158,77c-63,32 -118,59 -123,59c-20,0 -7,-30 24,-55c17,-14 59,-52 92,-83c161,-153 290,-268 309,-276c12,-4 105,-5 207,-1l185,6l32,-51c18,-28 32,-53 32,-56c0,-2 -9,-4 -20,-4c-13,0 -28,12 -38,31c-28,51 -38,62 -50,55c-7,-4 -8,-17 -2,-35c12,-42 -15,-50 -35,-11c-17,33 -28,37 -107,39l-57,1l16,-37c8,-21 22,-50 29,-65c13,-25 13,-28 -1,-28c-9,0 -14,4 -11,9c3,5 -6,34 -20,65l-26,56l-44,-4c-24,-2 -44,0 -44,4c0,4 -11,10 -25,12c-30,6 -30,7 -5,-41l19,-39l-22,-6c-12,-3 -94,-6 -182,-6c-88,0 -165,-4 -172,-8c-21,-13 -26,-60 -10,-86c12,-18 28,-25 70,-29c63,-8 101,3 196,57c35,20 66,34 69,31c3,-3 0,-5 -6,-5c-6,0 -9,-7 -6,-15c4,-8 10,-12 15,-9c12,7 51,-15 45,-25c-3,-4 9,-21 26,-37c30,-28 30,-17 0,19c-25,28 -6,19 33,-16l36,-33l-43,-36c-24,-19 -63,-47 -86,-62c-24,-15 -42,-30 -39,-32c10,-10 71,29 161,102l91,74l85,1l85,1l-67,22c-63,20 -66,22 -61,48c4,21 -1,34 -25,58c-26,26 -28,30 -11,30c10,0 19,-4 19,-10c0,-17 62,-80 79,-80c14,0 14,-2 1,-10c-18,-11 -13,-16 23,-26l29,-7l-16,31c-20,38 -20,42 -1,42c8,0 19,-8 24,-19c6,-10 22,-21 37,-24c21,-4 25,-1 21,14c-7,25 5,24 21,-1c13,-21 47,-27 57,-10c5,8 11,8 20,0c10,-8 30,-8 72,0c33,5 79,8 103,5c62,-8 103,2 96,23c-5,15 -5,15 6,1c9,-11 21,-13 38,-9c14,4 76,13 138,20l113,13l-30,31c-17,18 -31,35 -31,39c0,4 26,7 58,7c53,0 60,-2 70,-26c9,-17 18,-24 30,-20c9,3 76,19 147,36c153,36 530,72 662,63c73,-5 83,-4 104,16c29,27 33,22 14,-22c-42,-100 12,-198 127,-228c56,-15 83,-8 136,39c35,31 44,47 54,93c6,31 8,63 5,73c-6,15 -9,15 -37,1c-22,-11 -29,-21 -26,-38c2,-12 -3,-37 -10,-56c-8,-18 -11,-38 -7,-44c3,-5 1,-7 -5,-3c-6,3 -22,1 -36,-5c-13,-6 -36,-9 -51,-5c-30,8 -65,60 -65,97c0,30 35,79 56,79c8,0 14,8 14,17c0,15 2,15 14,-2c12,-17 16,-18 32,-5c15,13 17,13 12,0c-2,-8 5,-22 16,-32c20,-16 22,-15 47,9c26,24 28,24 57,9c35,-18 182,-60 188,-53c9,9 -8,35 -31,45c-35,16 -323,78 -455,98c-63,9 -121,23 -128,29c-11,10 -8,12 15,8c15,-2 91,-7 168,-10c146,-5 227,-22 329,-68c28,-12 69,-28 91,-35c74,-23 120,-48 158,-86c35,-35 36,-38 20,-56c-9,-10 -30,-18 -48,-18c-18,0 -39,-7 -46,-17c-15,-18 -16,-18 38,4c13,5 13,3 -3,-14c-10,-11 -25,-18 -32,-15c-8,3 -10,-1 -6,-12c9,-22 -9,-40 -73,-77c-40,-23 -58,-28 -66,-20c-6,6 -18,11 -26,11c-12,0 -12,-3 2,-17c17,-21 8,-35 -34,-49c-41,-13 -52,-13 -63,1c-9,11 -22,11 -81,0c-85,-17 -486,-20 -715,-5c-85,6 -232,14 -326,19c-95,5 -180,14 -190,19c-11,5 -42,17 -71,25c-45,14 -51,14 -46,1c4,-12 -6,-14 -58,-12c-35,1 -72,-3 -82,-8c-19,-11 33,-23 168,-39c28,-3 136,-27 240,-52l190,-45l165,12c91,7 291,16 445,20c209,5 294,11 335,23c160,46 284,109 373,189l49,43l-8,55c-6,49 -12,60 -58,104c-28,26 -74,66 -102,87c-44,34 -53,47 -67,98c-26,92 -121,170 -191,157c-24,-5 -28,-3 -16,5c11,8 1,9 -39,5c-30,-3 -61,-12 -71,-21c-22,-20 -24,-19 -88,11c-53,25 -149,55 -221,68c-34,6 -34,6 -16,-14c10,-11 14,-20 8,-20c-5,0 -18,9 -29,21c-29,33 -43,37 -182,59c-153,23 -451,26 -567,5zm609,-46c27,-5 64,-9 82,-9c18,0 35,-3 38,-8c5,-8 -87,-7 -101,1c-5,3 -57,11 -115,18c-118,14 -123,12 -160,-46c-18,-27 -19,-28 -13,-5c4,14 17,36 29,49c20,22 25,23 106,16c47,-3 107,-11 134,-16zm-817,-49c-12,-16 -33,-33 -46,-40c-22,-10 -23,-10 -10,6c13,16 12,17 -9,12c-14,-4 -20,-2 -16,4c5,7 -8,9 -40,6c-54,-6 -54,0 0,12c21,5 45,5 53,1c19,-10 41,-4 41,11c0,6 -8,7 -17,4c-17,-6 -17,-5 0,8c9,7 28,11 42,8l25,-4l-23,-28zm388,-71c44,-10 94,-19 112,-19c25,0 32,-5 35,-22c3,-20 13,-25 82,-38c44,-8 81,-21 84,-28c2,-6 -2,-12 -9,-12c-6,0 -47,-38 -91,-85c-77,-83 -80,-84 -116,-78c-20,3 -45,6 -54,5c-14,-1 -15,4 -7,26l9,27l-20,-24l-20,-23l-77,18c-53,12 -87,27 -110,47c-18,16 -33,25 -34,21c0,-5 -6,7 -13,26c-10,28 -10,37 1,48c15,16 16,31 3,52c-9,13 -11,13 -20,0c-7,-11 -10,-6 -10,22c0,31 -3,35 -20,31c-11,-3 -27,-14 -34,-25c-13,-18 -14,-18 -19,2c-7,27 -42,26 -61,-2c-21,-30 -20,-13 1,22c12,22 26,30 52,33c71,8 258,-6 336,-24zm313,12c3,-8 -1,-12 -9,-9c-7,2 -15,10 -17,17c-3,8 1,12 9,9c7,-2 15,-10 17,-17zm-1051,3c-3,-3 -12,-4 -19,-1c-8,3 -5,6 6,6c11,1 17,-2 13,-5zm342,-224l0,-25l-10,23c-5,13 -11,49 -14,80l-5,57l15,-55c8,-30 14,-66 14,-80zm-684,-200c3,-5 2,-10 -4,-10c-5,0 -13,5 -16,10c-3,6 -2,10 4,10c5,0 13,-4 16,-10zm483,-25c-3,-3 -9,2 -12,12c-6,14 -5,15 5,6c7,-7 10,-15 7,-18zm-663,-96c4,-6 13,-8 21,-5c18,7 18,-8 0,-23c-10,-9 -16,-8 -26,4c-7,8 -9,15 -4,15c5,0 2,5 -6,10c-9,6 -10,10 -3,10c6,0 15,-5 18,-11z" id="svg_3"/>
   <path d="m1710,1360c0,-5 5,-10 11,-10c5,0 7,5 4,10c-3,6 -8,10 -11,10c-2,0 -4,-4 -4,-10z" id="svg_4"/>
   <path d="m1064,1491c5,-8 56,-3 56,5c0,2 -14,4 -31,4c-16,0 -28,-4 -25,-9z" id="svg_5"/>
   <path d="m123,1406c5,-15 37,-20 49,-8c6,6 -1,11 -22,14c-19,3 -29,1 -27,-6z" id="svg_6"/>
   <path d="m2421,1074c0,-11 3,-14 6,-6c3,7 2,16 -1,19c-3,4 -6,-2 -5,-13z" id="svg_7"/>
   <path d="m2790,1070c-44,-44 -6,-130 58,-130c38,0 72,37 72,78c0,26 -7,36 -32,52c-42,25 -73,25 -98,0z" id="svg_8"/>
   <path d="m1631,1031l-24,-6l31,-27c35,-29 34,-30 -40,-44c-42,-7 -42,-7 -28,-35c8,-14 21,-19 55,-19c24,0 45,5 47,11c2,7 22,7 61,1c41,-6 57,-6 57,2c0,6 -21,37 -47,69c-48,57 -61,63 -112,48z" id="svg_9"/>
   <path d="m2532,1025c-1,-11 5,-45 13,-75c8,-30 15,-56 15,-57c0,-12 -87,0 -102,14c-22,20 -24,1 -2,-21c17,-18 109,-22 119,-6c3,5 1,19 -6,31c-6,12 -11,37 -11,55c0,19 -4,32 -8,29c-5,-3 -11,7 -13,22c-2,17 -5,20 -5,8z" id="svg_10"/>
   <path d="m1067,866c-53,-14 -62,-20 -53,-34c3,-6 23,-1 47,11c29,14 62,20 114,21c40,1 68,4 62,8c-18,12 -117,8 -170,-6z" id="svg_11"/>
   <path d="m613,683c-12,-13 -18,-23 -13,-23c4,0 17,-3 27,-6c14,-4 15,-4 4,4c-11,8 -10,12 5,20c12,7 15,14 9,20c-6,5 -19,-1 -32,-15z" id="svg_12"/>
   <path d="m1020,678c0,-7 9,-26 20,-43c24,-35 26,-28 6,20c-15,36 -26,45 -26,23z" id="svg_13"/>
   <path d="m587,632c-19,-21 -22,-48 -7,-57c11,-7 52,54 44,67c-8,13 -19,10 -37,-10z" id="svg_14"/>
   <path d="m519,599c-5,-10 -9,-25 -9,-34c0,-12 -5,-15 -17,-10c-10,3 -22,7 -28,8c-9,2 -104,-177 -105,-195c0,-4 7,-5 16,-1c23,9 13,-18 -54,-152c-30,-60 -63,-134 -73,-162l-18,-53l163,0c119,0 166,3 174,13c6,6 10,33 10,58c-1,37 6,57 35,101c40,60 56,133 36,169c-9,17 -8,23 2,30c11,7 11,9 -1,9c-12,0 -13,2 -1,9c11,7 11,9 0,14c-11,5 -10,8 4,17c21,13 23,32 2,24c-8,-4 -15,-1 -15,6c0,8 9,10 25,6c19,-5 25,-2 25,10c0,11 6,14 18,10c16,-5 16,-5 0,6c-15,11 -15,13 0,25c16,12 16,12 0,13c-10,0 -19,11 -23,29c-4,20 -11,28 -21,24c-8,-3 -14,-1 -14,5c0,6 6,13 13,15c6,3 7,6 1,6c-5,1 -19,-8 -31,-18c-11,-11 -33,-21 -49,-23c-27,-3 -29,-1 -26,28c2,23 -1,31 -13,31c-9,0 -20,-8 -26,-18z" id="svg_15"/>
   <path d="m2424,522c58,-67 446,-353 628,-463c82,-50 100,-57 151,-58c31,-1 57,2 57,6c0,5 -24,23 -52,39c-62,36 -346,191 -402,219c-21,11 -40,26 -43,33c-3,6 -11,12 -18,12c-7,0 -15,4 -17,8c-1,4 -48,38 -103,74c-55,37 -127,86 -160,109c-33,24 -51,33 -41,21zm698,-444c7,-7 20,-14 28,-16c8,-2 20,-8 25,-13c7,-7 3,-8 -9,-3c-15,6 -17,4 -11,-7c4,-8 -7,0 -26,16c-19,17 -36,31 -38,33c-2,1 1,2 7,2c6,0 17,-6 24,-12z" id="svg_16"/>
   <path d="m729,463c-13,-16 -12,-17 4,-4c16,13 21,21 13,21c-2,0 -10,-8 -17,-17z" id="svg_17"/>
   <path d="m795,438c-4,-10 -3,-22 1,-29c4,-7 3,-9 -2,-6c-6,3 -15,-7 -21,-24c-13,-34 -4,-38 17,-6c24,35 29,53 20,68c-7,11 -10,10 -15,-3z" id="svg_18"/>
   <path d="m685,400c3,-5 8,-10 11,-10c2,0 4,5 4,10c0,6 -5,10 -11,10c-5,0 -7,-4 -4,-10z" id="svg_19"/>
   <path d="m1240,335c30,-43 64,-83 74,-89c11,-6 27,-18 35,-26c23,-22 69,-98 50,-82c-9,6 -27,12 -40,11c-35,-1 -91,15 -128,37c-17,10 -56,53 -87,96c-31,43 -62,78 -70,78c-7,0 -18,-19 -24,-42c-6,-24 -17,-58 -25,-75c-9,-19 -12,-45 -9,-63c6,-27 4,-30 -20,-30c-24,0 -31,-8 -57,-65c-16,-35 -29,-69 -29,-75c0,-5 23,-10 52,-10c40,0 49,3 40,12c-17,17 -15,26 9,33c17,6 19,12 14,38c-4,22 -3,27 3,17c6,-8 13,-34 17,-57l7,-43l219,0c120,0 219,3 219,7c0,3 -8,15 -17,27c-18,20 -18,20 9,0c15,-10 28,-22 28,-26c0,-5 24,-8 54,-8c39,0 55,4 60,15c6,16 51,12 70,-6c6,-5 27,-9 48,-9l38,0l-30,42c-35,48 -37,58 -10,58c23,0 24,5 9,49c-6,17 -17,31 -24,31c-7,0 -18,6 -24,14c-10,11 -65,27 -107,30c-15,2 -44,26 -44,37c0,17 17,9 28,-13l11,-23l0,22c2,41 -77,138 -96,119c-3,-2 7,-22 21,-43c37,-54 32,-65 -9,-19c-19,22 -37,37 -40,35c-7,-7 17,-79 26,-79c8,0 59,-81 59,-93c0,-20 -20,1 -65,68c-42,62 -77,95 -100,95c-3,0 -5,-9 -5,-21c0,-21 -21,-49 -37,-49c-5,0 -13,19 -19,42c-7,34 -14,43 -37,49c-16,4 -45,20 -65,35c-36,28 -36,28 18,-51zm218,-270c-3,-3 -9,2 -12,12c-6,14 -5,15 5,6c7,-7 10,-15 7,-18z" id="svg_20"/>
   <path d="m1834,403c4,-8 2,-13 -4,-13c-17,0 5,-34 54,-85c43,-44 66,-56 66,-34c0,14 42,1 58,-19c17,-22 15,-81 -3,-88c-19,-8 -19,-20 5,-69c45,-94 18,-81 -139,63c-20,18 -45,38 -55,44c-16,9 -18,8 -13,-6c7,-17 -2,-15 -32,8c-7,5 -19,11 -27,12c-15,2 7,-38 39,-70c15,-15 18,-29 14,-82l-4,-64l244,0c143,0 243,4 243,9c0,5 -35,40 -77,78c-42,37 -123,113 -180,169c-56,55 -113,106 -125,112c-13,6 -34,20 -48,29c-13,10 -21,12 -16,6zm89,-335c20,-20 15,-23 -13,-8c-11,6 -25,20 -31,33c-12,21 -11,21 7,7c10,-8 27,-22 37,-32zm52,-29c11,-17 -1,-21 -15,-4c-8,9 -8,15 -2,15c6,0 14,-5 17,-11z" id="svg_21"/>
   <path d="m2165,190c-8,-13 70,-115 120,-158l38,-32l249,0l250,0l-48,50c-36,37 -58,51 -84,54c-51,7 -82,-3 -75,-23c10,-32 -111,-57 -134,-29c-6,7 -22,27 -36,45c-16,20 -47,40 -82,53c-58,22 -74,22 -48,0c17,-14 20,-30 6,-30c-5,0 -39,18 -75,40c-73,44 -72,44 -81,30zm185,-100c6,-11 9,-20 7,-20c-2,0 -12,9 -22,20c-10,11 -13,20 -7,20c6,0 16,-9 22,-20z" id="svg_22"/>
   <path d="m641,108c-13,-28 -25,-64 -27,-79c-3,-27 -2,-29 35,-29l38,0l-1,55c-1,30 3,56 7,58c5,1 1,12 -10,24l-18,22l-24,-51z" id="svg_23"/>
  </g>
 </g>
</svg>
