<svg xmlns="http://www.w3.org/2000/svg" viewBox="0 0 1020 762">
<path fill-rule="evenodd" fill="#f8f5df" d="M 637.0,278.0 L 578.0,258.0 L 442.0,151.0 L 371.0,137.0 L 371.0,157.0 L 352.0,146.0 L 279.0,190.0 L 69.0,259.0 L 96.0,292.0 L 56.0,331.0 L 220.0,436.0 L 240.0,410.0 L 224.0,373.0 L 185.0,380.0 L 162.0,334.0 L 124.0,333.0 L 103.0,299.0 L 136.0,311.0 L 337.0,260.0 L 247.0,345.0 L 361.0,324.0 L 416.0,348.0 L 505.0,337.0 L 533.0,364.0 L 578.0,364.0 Z M 207.0,259.0 L 207.0,267.0 L 202.0,271.0 L 177.0,271.0 L 166.0,274.0 L 158.0,279.0 L 148.0,279.0 L 146.0,277.0 L 146.0,266.0 L 150.0,261.0 L 158.0,261.0 L 170.0,257.0 L 181.0,256.0 L 184.0,254.0 L 200.0,254.0 L 205.0,256.0 Z"/>
<path fill-rule="evenodd" fill="#f8f5df" d="M 870.0,178.0 L 790.0,217.0 L 703.0,347.0 L 662.0,354.0 L 643.0,392.0 L 662.0,408.0 L 616.0,429.0 L 729.0,399.0 L 757.0,428.0 L 724.0,478.0 L 672.0,445.0 L 621.0,464.0 L 528.0,443.0 L 502.0,517.0 L 495.0,498.0 L 476.0,525.0 L 449.0,513.0 L 453.0,565.0 L 484.0,595.0 L 606.0,564.0 L 509.0,628.0 L 556.0,638.0 L 695.0,541.0 L 636.0,556.0 L 665.0,520.0 L 719.0,502.0 L 727.0,520.0 L 856.0,449.0 L 806.0,442.0 L 809.0,408.0 L 745.0,349.0 L 795.0,313.0 Z"/>
<path fill-rule="evenodd" fill="#977e70" d="M 801.0,139.0 L 767.0,158.0 L 659.0,262.0 L 610.0,324.0 L 620.0,332.0 L 611.0,354.0 L 577.0,371.0 L 586.0,401.0 L 562.0,397.0 L 551.0,418.0 L 536.0,421.0 L 541.0,462.0 L 554.0,454.0 L 549.0,435.0 L 574.0,444.0 L 584.0,413.0 L 613.0,415.0 L 621.0,389.0 L 643.0,371.0 L 649.0,339.0 L 720.0,311.0 L 715.0,288.0 L 724.0,271.0 L 739.0,267.0 L 770.0,222.0 L 802.0,202.0 L 799.0,186.0 L 781.0,184.0 L 786.0,161.0 L 801.0,157.0 Z M 758.0,208.0 L 760.0,210.0 L 759.0,225.0 L 740.0,235.0 L 737.0,239.0 L 729.0,239.0 L 730.0,256.0 L 708.0,272.0 L 700.0,272.0 L 698.0,270.0 L 698.0,262.0 L 714.0,242.0 L 718.0,239.0 L 727.0,239.0 L 727.0,229.0 L 749.0,208.0 Z"/>
<path fill-rule="evenodd" fill="#d1c0ae" d="M 908.0,129.0 L 847.0,149.0 L 839.0,168.0 L 793.0,191.0 L 758.0,251.0 L 701.0,287.0 L 718.0,310.0 L 648.0,340.0 L 610.0,419.0 L 592.0,400.0 L 600.0,372.0 L 576.0,371.0 L 534.0,420.0 L 517.0,475.0 L 531.0,480.0 L 562.0,449.0 L 560.0,424.0 L 611.0,430.0 L 668.0,407.0 L 646.0,389.0 L 664.0,381.0 L 670.0,353.0 L 700.0,349.0 L 710.0,325.0 L 745.0,303.0 L 795.0,216.0 L 840.0,196.0 L 856.0,215.0 L 891.0,175.0 Z"/>
<path fill-rule="evenodd" fill="#55453d" d="M 952.0,39.0 L 899.0,63.0 L 807.0,140.0 L 800.0,157.0 L 785.0,157.0 L 699.0,226.0 L 580.0,375.0 L 606.0,385.0 L 642.0,341.0 L 632.0,324.0 L 651.0,331.0 L 733.0,254.0 L 769.0,197.0 L 810.0,175.0 L 842.0,128.0 L 866.0,124.0 L 872.0,103.0 L 890.0,91.0 L 915.0,96.0 Z"/>
<path fill-rule="evenodd" fill="#55453d" d="M 302.0,512.0 L 289.0,514.0 L 276.0,533.0 L 274.0,544.0 L 258.0,550.0 L 255.0,561.0 L 245.0,561.0 L 219.0,518.0 L 205.0,512.0 L 199.0,529.0 L 196.0,601.0 L 241.0,616.0 L 308.0,616.0 L 313.0,601.0 L 312.0,564.0 Z"/>
<path fill-rule="evenodd" fill="#55453d" d="M 241.0,424.0 L 236.0,466.0 L 219.0,477.0 L 217.0,484.0 L 234.0,490.0 L 310.0,487.0 L 317.0,491.0 L 327.0,600.0 L 337.0,603.0 L 358.0,580.0 L 351.0,501.0 L 335.0,475.0 L 312.0,465.0 L 312.0,450.0 L 303.0,444.0 L 305.0,426.0 L 279.0,422.0 L 273.0,431.0 L 251.0,432.0 Z"/>
<path fill-rule="evenodd" fill="#977e70" d="M 305.0,468.0 L 292.0,473.0 L 294.0,489.0 L 283.0,493.0 L 280.0,506.0 L 252.0,508.0 L 238.0,504.0 L 236.0,489.0 L 224.0,486.0 L 221.0,478.0 L 213.0,481.0 L 213.0,494.0 L 203.0,502.0 L 202.0,512.0 L 215.0,513.0 L 233.0,536.0 L 234.0,545.0 L 242.0,557.0 L 258.0,565.0 L 259.0,578.0 L 264.0,577.0 L 273.0,560.0 L 275.0,533.0 L 291.0,511.0 L 299.0,510.0 L 299.0,494.0 L 309.0,491.0 Z"/>
<path fill-rule="evenodd" fill="#977e70" d="M 934.0,83.0 L 928.0,82.0 L 913.0,98.0 L 903.0,98.0 L 900.0,89.0 L 893.0,89.0 L 880.0,101.0 L 869.0,102.0 L 866.0,87.0 L 847.0,95.0 L 842.0,105.0 L 862.0,103.0 L 863.0,121.0 L 840.0,127.0 L 833.0,139.0 L 824.0,140.0 L 818.0,168.0 L 804.0,183.0 L 822.0,179.0 L 853.0,160.0 L 854.0,152.0 L 865.0,139.0 L 890.0,135.0 L 912.0,121.0 L 916.0,110.0 L 928.0,100.0 Z"/>
<path fill-rule="evenodd" fill="#d1c0ae" d="M 99.0,299.0 L 97.0,306.0 L 117.0,327.0 L 139.0,336.0 L 185.0,379.0 L 203.0,390.0 L 225.0,414.0 L 220.0,430.0 L 225.0,437.0 L 230.0,437.0 L 231.0,427.0 L 242.0,417.0 L 242.0,412.0 L 195.0,364.0 L 172.0,351.0 L 130.0,311.0 L 108.0,298.0 Z"/>
<path fill-rule="evenodd" fill="#d1c0ae" d="M 668.0,537.0 L 656.0,530.0 L 630.0,549.0 L 602.0,563.0 L 559.0,575.0 L 498.0,611.0 L 496.0,617.0 L 517.0,620.0 L 529.0,609.0 L 547.0,603.0 L 568.0,587.0 L 614.0,570.0 L 662.0,546.0 Z"/>
<path fill-rule="evenodd" fill="#f8f5df" d="M 423.0,616.0 L 417.0,618.0 L 406.0,635.0 L 384.0,680.0 L 384.0,686.0 L 391.0,687.0 L 395.0,692.0 L 396.0,702.0 L 401.0,702.0 L 408.0,697.0 L 420.0,684.0 L 427.0,666.0 L 429.0,651.0 L 439.0,631.0 L 438.0,624.0 L 426.0,623.0 Z"/>
<path fill-rule="evenodd" fill="#977e70" d="M 233.0,413.0 L 233.0,424.0 L 229.0,428.0 L 233.0,444.0 L 251.0,445.0 L 254.0,448.0 L 254.0,458.0 L 260.0,466.0 L 278.0,467.0 L 279.0,451.0 L 283.0,447.0 L 316.0,446.0 L 317.0,430.0 L 312.0,425.0 L 304.0,424.0 L 303.0,434.0 L 300.0,437.0 L 278.0,437.0 L 275.0,420.0 L 249.0,420.0 L 239.0,412.0 Z"/>
<path fill-rule="evenodd" fill="#d1c0ae" d="M 510.0,501.0 L 498.0,501.0 L 482.0,528.0 L 446.0,576.0 L 422.0,617.0 L 426.0,625.0 L 425.0,637.0 L 408.0,640.0 L 407.0,649.0 L 417.0,650.0 L 420.0,659.0 L 425.0,658.0 L 425.0,649.0 L 456.0,584.0 L 511.0,507.0 Z"/>
<path fill-rule="evenodd" fill="#f8f5df" d="M 355.0,492.0 L 356.0,510.0 L 363.0,518.0 L 359.0,538.0 L 380.0,544.0 L 428.0,589.0 L 429.0,595.0 L 434.0,595.0 L 437.0,589.0 L 444.0,585.0 L 449.0,567.0 L 438.0,566.0 L 435.0,560.0 L 418.0,561.0 L 389.0,540.0 L 375.0,524.0 L 376.0,497.0 L 366.0,492.0 Z"/>
<path fill-rule="evenodd" fill="#d1c0ae" d="M 232.0,493.0 L 233.0,501.0 L 252.0,507.0 L 276.0,506.0 L 287.0,500.0 L 299.0,502.0 L 310.0,524.0 L 315.0,558.0 L 316.0,605.0 L 312.0,621.0 L 322.0,620.0 L 331.0,612.0 L 331.0,607.0 L 324.0,602.0 L 314.0,496.0 L 308.0,491.0 Z"/>
</svg>