<?xml version="1.0" encoding="UTF-8"?>
<svg xmlns="http://www.w3.org/2000/svg" viewBox="0 0 794 1024" width="350" height="232" preserveAspectRatio="xMidYMid meet">
  <path fill="#1a1c16" d="M 400.4,138.4 L 382.3,164.5 L 364.1,162.2 L 356.2,171.3 L 380.0,189.4 L 387.9,209.8 L 366.4,223.5 L 378.9,232.5 L 377.7,305.1 L 355.0,359.6 L 324.4,381.1 L 311.9,381.1 L 272.2,338.0 L 245.0,324.4 L 252.9,299.5 L 235.9,308.5 L 221.2,305.1 L 218.9,280.2 L 197.4,301.7 L 170.1,314.2 L 150.9,339.2 L 148.6,358.4 L 125.9,390.2 L 122.5,415.1 L 132.7,429.9 L 153.1,427.6 L 167.9,436.7 L 158.8,426.5 L 162.2,414.0 L 192.8,401.5 L 213.2,408.3 L 226.9,450.3 L 198.5,459.4 L 207.6,483.2 L 200.8,490.0 L 183.8,487.7 L 186.0,505.9 L 228.0,508.2 L 233.7,519.5 L 245.0,521.8 L 238.2,547.9 L 217.8,547.9 L 217.8,560.3 L 255.2,575.1 L 259.8,608.0 L 237.1,615.9 L 277.9,630.7 L 287.0,714.6 L 298.3,743.0 L 310.8,716.9 L 309.7,637.5 L 321.0,625.0 L 333.5,627.3 L 356.2,778.1 L 365.2,771.3 L 358.4,740.7 L 366.4,713.5 L 365.2,621.6 L 446.9,609.1 L 469.6,647.7 L 482.1,645.4 L 491.1,613.6 L 509.3,605.7 L 510.4,623.9 L 499.1,630.7 L 513.8,673.8 L 522.9,648.8 L 533.1,648.8 L 545.6,667.0 L 564.9,783.8 L 571.7,788.3 L 570.5,766.8 L 577.4,753.2 L 586.4,753.2 L 610.2,821.2 L 613.6,877.9 L 631.8,896.1 L 628.4,923.3 L 638.6,923.3 L 639.7,866.6 L 622.7,814.4 L 622.7,746.4 L 588.7,743.0 L 598.9,699.9 L 594.4,614.8 L 603.4,585.3 L 623.9,563.7 L 636.3,564.9 L 639.7,576.2 L 728.2,579.6 L 772.4,572.8 L 792.9,579.6 L 792.9,527.4 L 754.3,535.4 L 648.8,527.4 L 630.7,510.4 L 609.1,504.8 L 575.1,469.6 L 543.3,456.0 L 532.0,440.1 L 533.1,422.0 L 602.3,416.3 L 593.2,383.4 L 493.4,401.5 L 507.0,343.7 L 488.9,287.0 L 480.9,283.6 L 479.8,270.0 L 441.2,263.2 L 442.4,252.9 L 461.7,245.0 L 433.3,188.3 L 456.0,170.1 L 432.2,161.1 L 420.8,139.5 L 404.9,147.5 Z"/>
  <path fill="#3f4e48" d="M 307.4,705.5 L 306.3,706.7 L 306.3,711.2 L 305.1,712.3 L 305.1,720.3 L 306.3,721.4 L 307.4,721.4 L 310.8,724.8 L 310.8,714.6 L 308.5,714.6 L 307.4,713.5 Z M 346.0,697.6 L 346.0,703.3 L 347.1,702.1 L 350.5,702.1 L 351.6,703.3 L 351.6,706.7 L 352.8,707.8 L 352.8,710.1 L 355.0,712.3 L 356.2,711.2 L 357.3,711.2 L 357.3,710.1 L 358.4,708.9 L 358.4,707.8 L 359.6,706.7 L 359.6,705.5 L 360.7,704.4 L 360.7,703.3 L 361.8,702.1 L 364.1,702.1 L 364.1,698.7 L 363.0,699.9 L 356.2,699.9 L 355.0,701.0 L 352.8,701.0 L 351.6,702.1 L 348.2,702.1 L 347.1,701.0 L 347.1,699.9 L 346.0,698.7 Z M 351.6,668.1 L 350.5,668.1 L 350.5,670.4 L 349.4,671.5 L 349.4,672.6 L 348.2,673.8 L 344.8,673.8 L 344.8,677.2 L 346.0,676.0 L 349.4,676.0 L 351.6,678.3 L 351.6,677.2 L 352.8,676.0 L 352.8,671.5 L 351.6,670.4 Z M 518.4,655.6 L 516.1,655.6 L 513.8,657.9 L 513.8,665.8 L 515.0,665.8 L 516.1,664.7 L 517.2,664.7 L 518.4,663.6 Z M 483.2,638.6 L 479.8,638.6 L 479.8,639.7 L 478.7,640.9 L 476.4,640.9 L 473.0,644.3 L 473.0,645.4 L 471.9,646.5 L 479.8,646.5 L 479.8,645.4 L 480.9,644.3 L 483.2,644.3 Z M 273.4,625.0 L 272.2,623.9 L 266.6,623.9 L 265.4,622.7 L 265.4,619.3 L 268.8,615.9 L 270.0,615.9 L 264.3,615.9 L 263.2,617.1 L 257.5,617.1 L 256.3,618.2 L 242.7,618.2 L 242.7,620.5 L 246.1,620.5 L 247.3,621.6 L 247.3,622.7 L 250.7,622.7 L 251.8,623.9 L 255.2,623.9 L 256.3,625.0 L 263.2,625.0 L 264.3,626.1 L 272.2,626.1 Z M 287.0,580.8 L 284.7,580.8 L 283.6,581.9 L 283.6,583.0 L 282.4,584.2 L 282.4,586.4 L 281.3,587.6 L 281.3,588.7 L 280.2,589.8 L 280.2,593.2 L 279.0,594.4 L 279.0,606.8 L 280.2,608.0 L 281.3,608.0 L 282.4,606.8 L 282.4,605.7 L 283.6,604.6 L 283.6,603.4 L 284.7,602.3 L 284.7,598.9 L 285.8,597.8 L 285.8,596.6 L 284.7,595.5 L 284.7,592.1 L 285.8,591.0 L 285.8,588.7 L 287.0,587.6 Z M 689.6,573.9 L 689.6,579.6 L 688.5,580.8 L 695.3,580.8 L 695.3,575.1 L 694.2,575.1 L 693.0,573.9 Z M 639.7,567.1 L 639.7,568.3 L 638.6,569.4 L 638.6,571.7 L 643.1,571.7 L 644.3,572.8 L 644.3,576.2 L 643.1,577.4 L 653.3,577.4 L 652.2,577.4 L 651.1,576.2 L 648.8,576.2 L 646.5,573.9 L 645.4,573.9 L 644.3,572.8 L 644.3,568.3 L 645.4,567.1 Z M 664.7,562.6 L 664.7,564.9 L 665.8,564.9 L 667.0,566.0 L 668.1,566.0 L 669.2,567.1 L 669.2,568.3 L 670.4,569.4 L 670.4,571.7 L 673.8,571.7 L 674.9,570.5 L 678.3,570.5 L 679.4,569.4 L 681.7,569.4 L 681.7,568.3 L 680.6,567.1 L 680.6,566.0 L 679.4,564.9 L 678.3,564.9 L 677.2,563.7 L 676.0,563.7 L 674.9,562.6 L 671.5,562.6 L 670.4,561.5 L 665.8,561.5 Z M 621.6,555.8 L 621.6,558.1 L 622.7,559.2 L 622.7,560.3 L 626.1,563.7 L 626.1,564.9 L 634.1,564.9 L 634.1,561.5 L 636.3,559.2 L 639.7,559.2 L 640.9,558.1 L 640.9,555.8 L 638.6,553.5 L 635.2,553.5 L 634.1,554.7 L 627.3,554.7 L 626.1,553.5 L 626.1,552.4 L 623.9,550.1 L 622.7,551.3 L 622.7,554.7 Z M 429.9,525.2 L 428.8,525.2 L 426.5,527.4 L 426.5,528.6 L 423.1,532.0 L 423.1,536.5 L 422.0,537.7 L 422.0,539.9 L 419.7,542.2 L 414.0,542.2 L 412.9,541.1 L 410.6,541.1 L 408.3,538.8 L 406.1,538.8 L 404.9,537.7 L 403.8,537.7 L 401.5,535.4 L 401.5,532.0 L 402.7,530.8 L 407.2,530.8 L 408.3,529.7 L 412.9,529.7 L 414.0,528.6 L 417.4,528.6 L 418.6,527.4 L 418.6,525.2 L 419.7,524.0 L 419.7,521.8 L 420.8,520.6 L 420.8,516.1 L 418.6,516.1 L 417.4,517.2 L 415.1,517.2 L 411.7,520.6 L 402.7,520.6 L 401.5,519.5 L 398.1,520.6 L 395.9,524.0 L 395.9,527.4 L 397.0,528.6 L 397.0,530.8 L 398.1,532.0 L 398.1,535.4 L 395.9,537.7 L 395.9,538.8 L 394.7,539.9 L 393.6,539.9 L 393.6,541.1 L 392.5,542.2 L 392.5,550.1 L 393.6,551.3 L 393.6,552.4 L 394.7,552.4 L 397.0,550.1 L 397.0,547.9 L 398.1,546.7 L 399.3,546.7 L 401.5,544.5 L 406.1,544.5 L 407.2,543.3 L 410.6,543.3 L 411.7,544.5 L 414.0,544.5 L 415.1,545.6 L 416.3,545.6 L 419.7,549.0 L 419.7,550.1 L 420.8,550.1 L 422.0,551.3 L 424.2,551.3 L 428.8,545.6 L 428.8,542.2 L 429.9,541.1 L 431.0,541.1 L 431.0,527.4 L 429.9,526.3 Z M 224.6,495.7 L 223.5,495.7 L 222.3,494.5 L 222.3,495.7 L 221.2,496.8 L 215.5,496.8 L 214.4,495.7 L 214.4,496.8 L 213.2,498.0 L 209.8,498.0 L 209.8,499.1 L 211.0,499.1 L 212.1,500.2 L 214.4,500.2 L 215.5,501.4 L 221.2,501.4 L 224.6,498.0 Z M 425.4,480.9 L 424.2,479.8 L 423.1,479.8 L 422.0,478.7 L 417.4,478.7 L 411.7,484.3 L 411.7,486.6 L 412.9,486.6 L 414.0,487.7 L 418.6,487.7 L 419.7,486.6 L 420.8,486.6 L 423.1,484.3 L 424.2,484.3 L 424.2,483.2 L 425.4,482.1 Z M 208.7,476.4 L 208.7,484.3 L 207.6,485.5 L 208.7,486.6 L 213.2,486.6 L 216.6,483.2 L 216.6,482.1 L 215.5,482.1 L 213.2,479.8 L 212.1,479.8 Z M 572.8,485.5 L 568.3,486.6 L 567.1,495.7 L 563.7,500.2 L 550.1,500.2 L 545.6,488.9 L 544.5,495.7 L 546.7,503.6 L 538.8,513.8 L 534.2,513.8 L 528.6,509.3 L 526.3,511.6 L 512.7,511.6 L 509.3,508.2 L 508.2,500.2 L 500.2,503.6 L 490.0,501.4 L 492.3,490.0 L 484.3,488.9 L 482.1,486.6 L 482.1,474.1 L 478.7,470.7 L 477.5,477.5 L 471.9,482.1 L 466.2,482.1 L 460.5,474.1 L 449.2,483.2 L 440.1,482.1 L 429.9,496.8 L 422.0,503.6 L 420.8,509.3 L 423.1,511.6 L 428.8,509.3 L 436.7,510.4 L 440.1,505.9 L 441.2,496.8 L 446.9,495.7 L 460.5,512.7 L 460.5,518.4 L 465.1,525.2 L 465.1,529.7 L 458.3,537.7 L 456.0,561.5 L 457.1,570.5 L 454.8,576.2 L 457.1,577.4 L 467.3,566.0 L 473.0,566.0 L 476.4,570.5 L 476.4,575.1 L 470.7,587.6 L 470.7,592.1 L 478.7,596.6 L 479.8,580.8 L 484.3,569.4 L 487.7,566.0 L 495.7,566.0 L 500.2,562.6 L 501.4,555.8 L 510.4,537.7 L 519.5,534.2 L 522.9,528.6 L 526.3,528.6 L 529.7,542.2 L 542.2,546.7 L 550.1,535.4 L 563.7,524.0 L 572.8,527.4 L 575.1,518.4 L 581.9,518.4 L 585.3,504.8 Z M 235.9,467.3 L 235.9,463.9 L 234.8,462.8 L 234.8,461.7 L 229.1,456.0 L 229.1,452.6 L 230.3,451.4 L 230.3,448.0 L 228.0,445.8 L 228.0,443.5 L 228.0,451.4 L 226.9,452.6 L 221.2,452.6 L 223.5,454.8 L 223.5,458.3 L 222.3,459.4 L 218.9,459.4 L 217.8,458.3 L 215.5,458.3 L 214.4,457.1 L 213.2,457.1 L 212.1,456.0 L 211.0,456.0 L 209.8,454.8 L 209.8,459.4 L 208.7,460.5 L 200.8,460.5 L 201.9,460.5 L 203.0,461.7 L 204.2,461.7 L 205.3,462.8 L 206.4,462.8 L 207.6,463.9 L 208.7,463.9 L 209.8,465.1 L 212.1,465.1 L 213.2,466.2 L 214.4,466.2 L 215.5,467.3 L 216.6,467.3 L 217.8,468.5 L 231.4,468.5 L 232.5,469.6 L 233.7,469.6 Z M 406.1,424.2 L 404.9,424.2 L 403.8,425.4 L 402.7,425.4 L 401.5,426.5 L 391.3,426.5 L 390.2,425.4 L 389.1,425.4 L 386.8,423.1 L 385.7,423.1 L 384.5,422.0 L 380.0,422.0 L 378.9,423.1 L 376.6,423.1 L 372.0,427.6 L 370.9,427.6 L 370.9,428.8 L 369.8,429.9 L 368.6,429.9 L 367.5,431.0 L 367.5,432.2 L 364.1,435.6 L 363.0,435.6 L 361.8,436.7 L 360.7,436.7 L 358.4,439.0 L 358.4,440.1 L 359.6,441.2 L 360.7,441.2 L 361.8,442.4 L 364.1,442.4 L 365.2,441.2 L 368.6,441.2 L 369.8,442.4 L 370.9,442.4 L 373.2,444.6 L 374.3,444.6 L 376.6,446.9 L 377.7,446.9 L 380.0,449.2 L 381.1,449.2 L 382.3,450.3 L 385.7,450.3 L 386.8,449.2 L 386.8,441.2 L 387.9,440.1 L 393.6,440.1 L 394.7,439.0 L 394.7,435.6 L 398.1,432.2 L 401.5,432.2 L 402.7,433.3 L 403.8,432.2 L 404.9,432.2 L 407.2,429.9 L 407.2,428.8 L 408.3,427.6 L 408.3,426.5 Z M 402.7,406.1 L 402.7,408.3 L 403.8,409.5 L 404.9,409.5 L 408.3,412.9 L 408.3,414.0 L 410.6,416.3 L 411.7,416.3 L 415.1,419.7 L 415.1,420.8 L 416.3,422.0 L 417.4,422.0 L 420.8,425.4 L 422.0,425.4 L 424.2,427.6 L 426.5,427.6 L 427.6,428.8 L 428.8,428.8 L 429.9,427.6 L 429.9,426.5 L 433.3,423.1 L 433.3,419.7 L 429.9,416.3 L 428.8,416.3 L 427.6,415.1 L 426.5,415.1 L 425.4,414.0 L 424.2,414.0 L 423.1,412.9 L 420.8,412.9 L 419.7,411.7 L 418.6,411.7 L 417.4,410.6 L 416.3,410.6 L 414.0,408.3 L 412.9,408.3 L 411.7,407.2 L 410.6,407.2 L 409.5,406.1 Z M 221.2,401.5 L 220.1,402.7 L 221.2,403.8 L 221.2,406.1 L 223.5,408.3 L 223.5,409.5 L 224.6,410.6 L 224.6,411.7 L 225.7,412.9 L 225.7,414.0 L 226.9,415.1 L 228.0,415.1 L 228.0,410.6 L 226.9,409.5 L 226.9,406.1 L 225.7,404.9 L 225.7,403.8 L 223.5,401.5 Z M 145.2,398.1 L 138.4,404.9 L 138.4,409.5 L 137.2,410.6 L 137.2,414.0 L 144.1,414.0 L 146.3,416.3 L 146.3,417.4 L 147.5,418.6 L 147.5,420.8 L 149.7,423.1 L 149.7,428.8 L 153.1,428.8 L 152.0,427.6 L 152.0,424.2 L 153.1,423.1 L 152.0,422.0 L 152.0,419.7 L 150.9,418.6 L 150.9,412.9 L 152.0,411.7 L 157.7,411.7 L 155.4,409.5 L 153.1,409.5 L 150.9,407.2 L 150.9,399.3 L 148.6,399.3 L 147.5,398.1 Z M 247.3,384.5 L 243.9,386.8 L 243.9,389.1 L 249.5,398.1 L 249.5,407.2 L 251.8,409.5 L 255.2,418.6 L 265.4,427.6 L 265.4,428.8 L 271.1,434.4 L 272.2,439.0 L 274.5,441.2 L 274.5,454.8 L 273.4,456.0 L 273.4,460.5 L 274.5,462.8 L 276.8,462.8 L 280.2,466.2 L 280.2,474.1 L 282.4,474.1 L 288.1,469.6 L 290.4,469.6 L 293.8,466.2 L 293.8,465.1 L 296.0,462.8 L 297.2,458.3 L 299.5,456.0 L 301.7,451.4 L 301.7,446.9 L 308.5,441.2 L 308.5,439.0 L 304.0,439.0 L 300.6,443.5 L 296.0,443.5 L 294.9,442.4 L 294.9,437.8 L 298.3,433.3 L 298.3,429.9 L 297.2,431.0 L 292.6,431.0 L 290.4,428.8 L 289.2,428.8 L 287.0,425.4 L 287.0,423.1 L 284.7,418.6 L 272.2,412.9 L 270.0,410.6 L 266.6,409.5 L 263.2,406.1 L 263.2,400.4 L 264.3,399.3 L 271.1,400.4 L 271.1,398.1 L 267.7,394.7 L 258.6,392.5 L 250.7,384.5 Z M 217.8,366.4 L 217.8,369.8 L 220.1,372.0 L 220.1,373.2 L 223.5,376.6 L 230.3,376.6 L 231.4,375.4 L 229.1,375.4 L 224.6,370.9 L 224.6,369.8 L 223.5,369.8 L 222.3,368.6 L 222.3,367.5 L 221.2,367.5 L 220.1,366.4 Z M 162.2,356.2 L 161.1,357.3 L 157.7,357.3 L 156.5,356.2 L 156.5,358.4 L 155.4,359.6 L 155.4,361.8 L 154.3,363.0 L 154.3,365.2 L 153.1,366.4 L 153.1,370.9 L 154.3,370.9 L 155.4,372.0 L 157.7,372.0 L 157.7,370.9 L 158.8,369.8 L 158.8,359.6 Z M 199.6,355.0 L 196.2,355.0 L 195.1,356.2 L 195.1,357.3 L 192.8,359.6 L 192.8,363.0 L 191.7,364.1 L 191.7,368.6 L 190.6,369.8 L 191.7,370.9 L 191.7,374.3 L 194.0,376.6 L 195.1,376.6 L 197.4,374.3 L 197.4,370.9 L 201.9,366.4 L 201.9,359.6 L 200.8,358.4 L 200.8,357.3 L 199.6,356.2 Z M 221.2,326.7 L 218.9,324.4 L 214.4,324.4 L 213.2,325.5 L 211.0,325.5 L 207.6,328.9 L 206.4,328.9 L 203.0,332.3 L 201.9,332.3 L 201.9,333.5 L 199.6,335.7 L 198.5,335.7 L 197.4,336.9 L 192.8,336.9 L 191.7,335.7 L 190.6,336.9 L 190.6,338.0 L 191.7,339.2 L 191.7,342.6 L 188.3,346.0 L 181.5,346.0 L 181.5,347.1 L 180.4,348.2 L 180.4,350.5 L 179.2,351.6 L 179.2,355.0 L 178.1,356.2 L 179.2,357.3 L 181.5,357.3 L 182.6,356.2 L 184.9,356.2 L 186.0,355.0 L 187.2,355.0 L 189.4,352.8 L 189.4,349.4 L 191.7,346.0 L 199.6,346.0 L 200.8,344.8 L 200.8,340.3 L 205.3,335.7 L 206.4,335.7 L 209.8,333.5 L 215.5,333.5 L 216.6,334.6 L 216.6,340.3 L 214.4,342.6 L 214.4,347.1 L 216.6,347.1 L 221.2,351.6 L 221.2,353.9 L 223.5,356.2 L 226.9,357.3 L 229.1,353.9 L 229.1,350.5 L 228.0,349.4 L 228.0,347.1 L 225.7,344.8 L 225.7,343.7 L 224.6,342.6 L 224.6,339.2 L 223.5,338.0 L 223.5,335.7 L 220.1,332.3 L 220.1,327.8 Z M 482.1,275.6 L 478.7,275.6 L 476.4,273.4 L 474.1,273.4 L 473.0,274.5 L 470.7,274.5 L 469.6,275.6 L 468.5,275.6 L 465.1,279.0 L 465.1,281.3 L 463.9,282.4 L 463.9,283.6 L 466.2,283.6 L 467.3,282.4 L 473.0,282.4 L 474.1,283.6 L 476.4,283.6 L 477.5,284.7 L 478.7,283.6 L 482.1,283.6 Z M 462.8,271.1 L 457.1,271.1 L 456.0,270.0 L 456.0,268.8 L 450.3,274.5 L 450.3,276.8 L 451.4,277.9 L 452.6,276.8 L 453.7,276.8 L 454.8,275.6 L 456.0,275.6 L 457.1,274.5 L 458.3,274.5 L 461.7,271.1 Z M 437.8,228.0 L 434.4,231.4 L 434.4,232.5 L 435.6,233.7 L 435.6,234.8 L 436.7,235.9 L 436.7,239.3 L 437.8,240.5 L 437.8,249.5 L 439.0,250.7 L 439.0,251.8 L 440.1,251.8 L 442.4,254.1 L 442.4,264.3 L 443.5,265.4 L 448.0,265.4 L 443.5,265.4 L 442.4,264.3 L 442.4,255.2 L 443.5,254.1 L 445.8,254.1 L 444.6,252.9 L 444.6,249.5 L 443.5,248.4 L 443.5,243.9 L 444.6,242.7 L 444.6,240.5 L 443.5,239.3 L 443.5,235.9 L 442.4,234.8 L 442.4,232.5 L 441.2,231.4 L 441.2,230.3 L 440.1,229.1 L 439.0,229.1 Z M 414.0,194.0 L 412.9,195.1 L 412.9,198.5 L 414.0,199.6 L 414.0,200.8 L 416.3,200.8 L 417.4,201.9 L 418.6,201.9 L 419.7,200.8 L 419.7,198.5 L 417.4,196.2 L 417.4,195.1 L 416.3,195.1 L 415.1,194.0 Z M 407.2,186.0 L 406.1,187.2 L 404.9,187.2 L 404.9,188.3 L 401.5,191.7 L 401.5,194.0 L 406.1,194.0 L 408.3,191.7 L 408.3,188.3 L 407.2,187.2 Z M 425.4,165.6 L 414.0,165.6 L 412.9,164.5 L 412.9,158.8 L 414.0,157.7 L 414.0,148.6 L 407.2,148.6 L 407.2,149.7 L 410.6,153.1 L 410.6,157.7 L 404.9,163.3 L 404.9,164.5 L 403.8,165.6 L 402.7,165.6 L 400.4,167.9 L 395.9,167.9 L 394.7,169.0 L 393.6,169.0 L 392.5,170.1 L 391.3,170.1 L 390.2,171.3 L 392.5,171.3 L 393.6,172.4 L 399.3,172.4 L 400.4,173.5 L 406.1,173.5 L 407.2,172.4 L 412.9,172.4 L 414.0,171.3 L 416.3,171.3 L 417.4,170.1 L 418.6,170.1 L 418.6,169.0 L 419.7,167.9 L 423.1,167.9 Z"/>
  <circle cx="394" cy="182" r="6" fill="#cc1f1f"/>
  <circle cx="417" cy="181" r="6" fill="#cc1f1f"/>
</svg>